<svg width="1333" height="96" viewBox="0 0 1333 96" xmlns="http://www.w3.org/2000/svg"><g id="svgGroup" stroke-linecap="round" fill-rule="evenodd" font-size="9pt" stroke="#000" stroke-width="0.25mm" fill="black" style="stroke:#000;stroke-width:0.25mm;fill:black"><path d="M 228.7 74 L 228.7 16.1 L 210 58.2 L 200.6 58.2 L 181.8 16.1 L 181.8 74 L 172.8 74 L 172.8 4 L 186.1 4 L 205.5 48.3 L 224.6 4 L 238.2 4 L 238.2 74 L 228.7 74 Z M 114.9 74 L 83.8 16.2 L 83.8 74 L 74.8 74 L 74.8 4 L 87.4 4 L 118.3 62.2 L 118.3 4 L 127.3 4 L 127.3 74 L 114.9 74 Z M 363.2 63.8 L 376.5 21.5 L 384.5 24.4 L 368 74 L 358.1 74 L 346.1 35.3 L 334 74 L 324.1 74 L 307.7 24.4 L 316 21.5 L 329.4 63.8 L 341.6 25.7 L 351.3 25.7 L 363.2 63.8 Z M 628.4 0 L 628.4 30.3 Q 631.2 26.2 635.45 23.5 A 17.126 17.126 0 0 1 641.99 21.077 A 22.699 22.699 0 0 1 645.6 20.8 A 23.225 23.225 0 0 1 650.665 21.318 Q 655.759 22.456 658.75 26.1 Q 662.875 31.126 663.088 39.209 A 33.764 33.764 0 0 1 663.1 40.1 L 663.1 74 L 654.1 74 L 654.1 41.1 Q 654.1 36.803 652.651 33.841 A 10.747 10.747 0 0 0 651.55 32.05 Q 649 28.7 644.2 28.7 Q 641.9 28.7 639.65 29.55 Q 637.4 30.4 635.4 31.9 A 26.152 26.152 0 0 0 632.11 34.847 A 29.423 29.423 0 0 0 631.6 35.4 Q 629.8 37.4 628.4 39.6 L 628.4 74 L 619.4 74 L 619.4 0 L 628.4 0 Z M 833.9 0 L 833.9 30.3 Q 836.7 26.2 840.95 23.5 A 17.126 17.126 0 0 1 847.49 21.077 A 22.699 22.699 0 0 1 851.1 20.8 A 23.225 23.225 0 0 1 856.165 21.318 Q 861.259 22.456 864.25 26.1 Q 868.375 31.126 868.588 39.209 A 33.764 33.764 0 0 1 868.6 40.1 L 868.6 74 L 859.6 74 L 859.6 41.1 Q 859.6 36.803 858.151 33.841 A 10.747 10.747 0 0 0 857.05 32.05 Q 854.5 28.7 849.7 28.7 Q 847.4 28.7 845.15 29.55 Q 842.9 30.4 840.9 31.9 A 26.152 26.152 0 0 0 837.61 34.847 A 29.423 29.423 0 0 0 837.1 35.4 Q 835.3 37.4 833.9 39.6 L 833.9 74 L 824.9 74 L 824.9 0 L 833.9 0 Z M 1193.9 22 L 1193.9 30.7 Q 1196.7 26.5 1201.05 23.65 A 17.316 17.316 0 0 1 1208.156 21.025 A 22.629 22.629 0 0 1 1211.4 20.8 A 23.225 23.225 0 0 1 1216.465 21.318 Q 1221.559 22.456 1224.55 26.1 Q 1228.675 31.126 1228.888 39.209 A 33.764 33.764 0 0 1 1228.9 40.1 L 1228.9 74 L 1219.9 74 L 1219.9 41.1 Q 1219.9 36.744 1218.382 33.761 A 10.688 10.688 0 0 0 1217.3 32.05 A 8.461 8.461 0 0 0 1211.355 28.783 A 12.388 12.388 0 0 0 1209.9 28.7 Q 1207.6 28.7 1205.4 29.55 A 18.175 18.175 0 0 0 1201.697 31.513 A 20.625 20.625 0 0 0 1201.15 31.9 Q 1199.1 33.4 1197.35 35.4 Q 1195.6 37.4 1194.2 39.6 L 1194.2 74 L 1185.2 74 L 1185.2 22 L 1193.9 22 Z M 8.1 74.8 L 0 71.5 L 27.4 4 L 37.8 4 L 64.8 71.5 L 56.1 75 L 48.3 55 L 15.9 55 L 8.1 74.8 Z M 1097.6 27.2 L 1097.6 0 L 1106.6 0 L 1106.6 61.4 A 12.15 12.15 0 0 0 1106.702 63.036 Q 1107.034 65.47 1108.45 66.35 Q 1110.3 67.5 1112.5 67.5 L 1110.6 74.5 Q 1101.1 74.5 1099 66.9 A 20.774 20.774 0 0 1 1095.705 70.471 A 27.009 27.009 0 0 1 1092.8 72.65 A 14.878 14.878 0 0 1 1088.064 74.64 Q 1086.08 75.112 1083.768 75.186 A 27.174 27.174 0 0 1 1082.9 75.2 Q 1078.1 75.2 1073.85 73.3 Q 1069.6 71.4 1066.45 67.9 A 24.368 24.368 0 0 1 1062.518 61.906 A 29.512 29.512 0 0 1 1061.5 59.45 Q 1059.7 54.5 1059.7 48.3 A 33.082 33.082 0 0 1 1060.555 40.672 A 29.101 29.101 0 0 1 1061.55 37.35 A 29.65 29.65 0 0 1 1064.37 31.584 A 25.323 25.323 0 0 1 1066.55 28.65 Q 1069.7 25 1073.9 22.9 Q 1078.1 20.8 1082.8 20.8 A 21.642 21.642 0 0 1 1087.072 21.202 A 15.942 15.942 0 0 1 1091.75 22.9 A 34.343 34.343 0 0 1 1094.33 24.489 Q 1095.554 25.324 1096.525 26.174 A 16.59 16.59 0 0 1 1097.6 27.2 Z M 699.6 29 L 701.5 22 Q 707.362 22 710.422 24.964 A 10.15 10.15 0 0 1 713 29.3 A 10.779 10.779 0 0 1 713.57 28.496 Q 713.884 28.09 714.279 27.641 A 27.353 27.353 0 0 1 715.15 26.7 A 16.384 16.384 0 0 1 716.987 25.076 A 21.174 21.174 0 0 1 718.7 23.9 A 21.017 21.017 0 0 1 721.559 22.431 A 26.105 26.105 0 0 1 723.5 21.7 A 17.383 17.383 0 0 1 727.109 20.927 A 21.911 21.911 0 0 1 729.5 20.8 Q 734 20.8 738.15 22.6 Q 742.3 24.4 745.45 27.8 A 23.706 23.706 0 0 1 749.046 32.952 A 29.885 29.885 0 0 1 750.5 36.2 Q 752.4 41.2 752.4 47.5 A 36.118 36.118 0 0 1 751.815 54.127 A 29.577 29.577 0 0 1 750.55 58.8 A 29.869 29.869 0 0 1 747.895 64.345 A 25.112 25.112 0 0 1 745.55 67.55 A 22.791 22.791 0 0 1 739.076 72.802 A 21.837 21.837 0 0 1 738.3 73.2 Q 734.2 75.2 729.7 75.2 A 20.824 20.824 0 0 1 723.396 74.265 A 19.034 19.034 0 0 1 721.05 73.35 A 30.345 30.345 0 0 1 717.644 71.495 A 22.064 22.064 0 0 1 714.5 69.1 L 714.5 96 L 705.5 96 L 705.5 35.3 A 11.015 11.015 0 0 0 705.373 33.564 Q 705.042 31.498 703.85 30.45 A 5.718 5.718 0 0 0 701.06 29.128 A 7.991 7.991 0 0 0 699.6 29 Z M 937.9 29 L 939.8 22 Q 945.662 22 948.722 24.964 A 10.15 10.15 0 0 1 951.3 29.3 A 10.779 10.779 0 0 1 951.87 28.496 Q 952.184 28.09 952.579 27.641 A 27.353 27.353 0 0 1 953.45 26.7 A 16.384 16.384 0 0 1 955.287 25.076 A 21.174 21.174 0 0 1 957 23.9 A 21.017 21.017 0 0 1 959.859 22.431 A 26.105 26.105 0 0 1 961.8 21.7 A 17.383 17.383 0 0 1 965.409 20.927 A 21.911 21.911 0 0 1 967.8 20.8 Q 972.3 20.8 976.45 22.6 Q 980.6 24.4 983.75 27.8 A 23.706 23.706 0 0 1 987.346 32.952 A 29.885 29.885 0 0 1 988.8 36.2 Q 990.7 41.2 990.7 47.5 A 36.118 36.118 0 0 1 990.115 54.127 A 29.577 29.577 0 0 1 988.85 58.8 A 29.869 29.869 0 0 1 986.195 64.345 A 25.112 25.112 0 0 1 983.85 67.55 A 22.791 22.791 0 0 1 977.376 72.802 A 21.837 21.837 0 0 1 976.6 73.2 Q 972.5 75.2 968 75.2 A 20.824 20.824 0 0 1 961.696 74.265 A 19.034 19.034 0 0 1 959.35 73.35 A 30.345 30.345 0 0 1 955.944 71.495 A 22.064 22.064 0 0 1 952.8 69.1 L 952.8 96 L 943.8 96 L 943.8 35.3 A 11.015 11.015 0 0 0 943.673 33.564 Q 943.342 31.498 942.15 30.45 A 5.718 5.718 0 0 0 939.36 29.128 A 7.991 7.991 0 0 0 937.9 29 Z M 547.1 51.7 L 510.7 51.7 A 24.088 24.088 0 0 0 511.839 56.725 Q 513.175 60.538 515.8 63.1 Q 520 67.2 526.9 67.2 Q 531.4 67.2 535 66.25 Q 538.6 65.3 541.9 63.8 L 544 71.5 A 35.406 35.406 0 0 1 539.181 73.342 A 44.267 44.267 0 0 1 535.9 74.2 A 40.711 40.711 0 0 1 530.808 74.98 A 54.607 54.607 0 0 1 525.8 75.2 A 29.178 29.178 0 0 1 520.004 74.647 A 23.608 23.608 0 0 1 515.7 73.35 Q 511.2 71.5 508.05 68.05 A 22.127 22.127 0 0 1 504.404 62.55 A 27.574 27.574 0 0 1 503.2 59.55 A 31.581 31.581 0 0 1 501.849 53.593 A 42.813 42.813 0 0 1 501.5 48 A 34.878 34.878 0 0 1 502.304 40.403 A 30.597 30.597 0 0 1 503.2 37.2 A 27.699 27.699 0 0 1 506.014 31.251 A 24.152 24.152 0 0 1 508 28.55 Q 511.1 24.9 515.4 22.85 Q 519.7 20.8 525 20.8 A 27.908 27.908 0 0 1 529.904 21.211 A 20.619 20.619 0 0 1 534.8 22.7 Q 539 24.6 541.8 27.9 Q 544.6 31.2 546 35.6 A 30.348 30.348 0 0 1 547.397 44.442 A 34.055 34.055 0 0 1 547.4 44.9 A 75.204 75.204 0 0 1 547.109 51.597 A 69.426 69.426 0 0 1 547.1 51.7 Z M 1332.7 51.7 L 1296.3 51.7 A 24.088 24.088 0 0 0 1297.439 56.725 Q 1298.775 60.538 1301.4 63.1 Q 1305.6 67.2 1312.5 67.2 Q 1317 67.2 1320.6 66.25 Q 1324.2 65.3 1327.5 63.8 L 1329.6 71.5 A 35.406 35.406 0 0 1 1324.781 73.342 A 44.267 44.267 0 0 1 1321.5 74.2 A 40.711 40.711 0 0 1 1316.408 74.98 A 54.607 54.607 0 0 1 1311.4 75.2 A 29.178 29.178 0 0 1 1305.604 74.647 A 23.608 23.608 0 0 1 1301.3 73.35 Q 1296.8 71.5 1293.65 68.05 A 22.127 22.127 0 0 1 1290.004 62.55 A 27.574 27.574 0 0 1 1288.8 59.55 A 31.581 31.581 0 0 1 1287.449 53.593 A 42.813 42.813 0 0 1 1287.1 48 A 34.878 34.878 0 0 1 1287.904 40.403 A 30.597 30.597 0 0 1 1288.8 37.2 A 27.699 27.699 0 0 1 1291.614 31.251 A 24.152 24.152 0 0 1 1293.6 28.55 Q 1296.7 24.9 1301 22.85 Q 1305.3 20.8 1310.6 20.8 A 27.908 27.908 0 0 1 1315.504 21.211 A 20.619 20.619 0 0 1 1320.4 22.7 Q 1324.6 24.6 1327.4 27.9 Q 1330.2 31.2 1331.6 35.6 A 30.348 30.348 0 0 1 1332.997 44.442 A 34.055 34.055 0 0 1 1333 44.9 A 75.204 75.204 0 0 1 1332.709 51.597 A 69.426 69.426 0 0 1 1332.7 51.7 Z M 467.6 74 L 446.7 24.4 L 454.9 21 L 472.6 63.8 L 490.3 21 L 498 24.4 L 477 74 L 467.6 74 Z M 1280.3 23.9 L 1277.6 31.5 A 35.532 35.532 0 0 0 1274.969 30.352 Q 1273.618 29.83 1272.366 29.494 A 21.586 21.586 0 0 0 1272.2 29.45 Q 1269.7 28.8 1266.6 28.8 Q 1263.1 28.8 1260.05 30.1 Q 1257 31.4 1254.8 33.85 A 16.788 16.788 0 0 0 1252.128 37.914 A 20.581 20.581 0 0 0 1251.35 39.8 A 20.918 20.918 0 0 0 1250.339 44.054 A 28.088 28.088 0 0 0 1250.1 47.8 A 25.667 25.667 0 0 0 1250.584 52.865 A 21.996 21.996 0 0 0 1251.25 55.4 A 20.488 20.488 0 0 0 1253.337 59.902 A 18.248 18.248 0 0 0 1254.5 61.55 Q 1256.6 64.2 1259.5 65.7 Q 1262.4 67.2 1266 67.2 Q 1269.8 67.2 1272.5 66.4 A 25.095 25.095 0 0 0 1275.277 65.385 Q 1276.647 64.796 1278.105 64.006 A 41.473 41.473 0 0 0 1278.3 63.9 L 1281.1 71.5 Q 1277.9 73.2 1274.1 74.2 Q 1270.419 75.169 1265.705 75.199 A 47.525 47.525 0 0 1 1265.4 75.2 A 26.988 26.988 0 0 1 1259.487 74.576 A 22.271 22.271 0 0 1 1255.3 73.2 Q 1250.8 71.2 1247.6 67.6 A 24.641 24.641 0 0 1 1243.421 60.973 A 29.254 29.254 0 0 1 1242.65 59 A 31.204 31.204 0 0 1 1241.071 51.652 A 38.153 38.153 0 0 1 1240.9 48 A 31.882 31.882 0 0 1 1242.14 39.032 A 29.616 29.616 0 0 1 1242.65 37.45 A 25.969 25.969 0 0 1 1246.899 29.745 A 24.654 24.654 0 0 1 1247.7 28.8 Q 1251 25.1 1255.65 22.95 A 23.318 23.318 0 0 1 1262.928 20.97 A 28.889 28.889 0 0 1 1266.1 20.8 A 42.637 42.637 0 0 1 1269.683 20.942 Q 1271.992 21.137 1273.9 21.6 Q 1277.2 22.4 1280.3 23.9 Z M 429.6 26.2 L 429.6 22 L 437.8 22 L 437.8 61.4 A 12.15 12.15 0 0 0 437.902 63.036 Q 438.234 65.47 439.65 66.35 Q 441.5 67.5 443.7 67.5 L 441.8 74.5 A 17.722 17.722 0 0 1 437.535 74.028 Q 431.898 72.628 430.303 67.08 A 13.59 13.59 0 0 1 430.2 66.7 Q 429 68.3 427.45 69.85 A 18.204 18.204 0 0 1 424.156 72.444 A 20.291 20.291 0 0 1 423.9 72.6 A 17.462 17.462 0 0 1 420.767 74.067 A 20.704 20.704 0 0 1 419.4 74.5 A 18.765 18.765 0 0 1 416.08 75.102 A 23.457 23.457 0 0 1 413.9 75.2 Q 409 75.2 404.75 73.3 Q 400.5 71.4 397.35 67.9 A 24.891 24.891 0 0 1 393.493 62.12 A 30.206 30.206 0 0 1 392.35 59.45 Q 390.5 54.5 390.5 48.3 Q 390.5 42.5 392.3 37.45 A 27.784 27.784 0 0 1 395.46 31.144 A 24.797 24.797 0 0 1 397.35 28.7 Q 400.6 25 405.15 22.9 A 23.124 23.124 0 0 1 413.929 20.825 A 27.082 27.082 0 0 1 415.1 20.8 A 22.584 22.584 0 0 1 419.894 21.29 A 18.703 18.703 0 0 1 423.25 22.35 A 26.002 26.002 0 0 1 427.537 24.644 A 22.103 22.103 0 0 1 429.6 26.2 Z M 1159.1 26.2 L 1159.1 22 L 1167.3 22 L 1167.3 61.4 A 12.15 12.15 0 0 0 1167.402 63.036 Q 1167.734 65.47 1169.15 66.35 Q 1171 67.5 1173.2 67.5 L 1171.3 74.5 A 17.722 17.722 0 0 1 1167.035 74.028 Q 1161.398 72.628 1159.803 67.08 A 13.59 13.59 0 0 1 1159.7 66.7 Q 1158.5 68.3 1156.95 69.85 A 18.204 18.204 0 0 1 1153.656 72.444 A 20.291 20.291 0 0 1 1153.4 72.6 A 17.462 17.462 0 0 1 1150.267 74.067 A 20.704 20.704 0 0 1 1148.9 74.5 A 18.765 18.765 0 0 1 1145.58 75.102 A 23.457 23.457 0 0 1 1143.4 75.2 Q 1138.5 75.2 1134.25 73.3 Q 1130 71.4 1126.85 67.9 A 24.891 24.891 0 0 1 1122.993 62.12 A 30.206 30.206 0 0 1 1121.85 59.45 Q 1120 54.5 1120 48.3 Q 1120 42.5 1121.8 37.45 A 27.784 27.784 0 0 1 1124.96 31.144 A 24.797 24.797 0 0 1 1126.85 28.7 Q 1130.1 25 1134.65 22.9 A 23.124 23.124 0 0 1 1143.429 20.825 A 27.082 27.082 0 0 1 1144.6 20.8 A 22.584 22.584 0 0 1 1149.394 21.29 A 18.703 18.703 0 0 1 1152.75 22.35 A 26.002 26.002 0 0 1 1157.037 24.644 A 22.103 22.103 0 0 1 1159.1 26.2 Z M 880.664 41.659 A 34.196 34.196 0 0 0 880.1 48 A 34.702 34.702 0 0 0 880.23 51.027 A 28.722 28.722 0 0 0 882.05 59 A 29.451 29.451 0 0 0 882.561 60.228 A 25.437 25.437 0 0 0 887.45 67.6 Q 890.9 71.2 895.65 73.2 A 24.648 24.648 0 0 0 898.702 74.255 A 27.492 27.492 0 0 0 906 75.2 A 30.449 30.449 0 0 0 907.025 75.183 A 26.432 26.432 0 0 0 916.25 73.25 Q 921 71.3 924.5 67.7 A 23.825 23.825 0 0 0 926.346 65.56 A 26.161 26.161 0 0 0 929.95 59.05 A 27.814 27.814 0 0 0 931.283 54.411 A 34.074 34.074 0 0 0 931.9 47.8 A 34.924 34.924 0 0 0 931.664 43.679 A 27.811 27.811 0 0 0 929.9 36.6 A 28.718 28.718 0 0 0 929.238 35.074 A 24.42 24.42 0 0 0 924.4 28.1 Q 920.9 24.6 916.15 22.7 A 26.059 26.059 0 0 0 915.554 22.47 A 27.19 27.19 0 0 0 906 20.8 A 31.154 31.154 0 0 0 904.806 20.823 A 26.981 26.981 0 0 0 895.75 22.7 Q 891 24.6 887.55 28.1 Q 884.1 31.6 882.1 36.65 A 27.311 27.311 0 0 0 880.664 41.659 Z M 154.8 74 L 145.3 74 L 145.3 4 L 154.8 4 L 154.8 74 Z M 247.2 85.5 L 247.2 79.5 L 307.2 79.5 L 307.2 85.5 L 247.2 85.5 Z M 551.4 85.5 L 551.4 79.5 L 611.4 79.5 L 611.4 85.5 L 551.4 85.5 Z M 756.9 85.5 L 756.9 79.5 L 816.9 79.5 L 816.9 85.5 L 756.9 85.5 Z M 995.2 85.5 L 995.2 79.5 L 1055.2 79.5 L 1055.2 85.5 L 995.2 85.5 Z M 687.6 22 L 687.6 74 L 678.6 74 L 678.6 22 L 687.6 22 Z M 922.7 48 Q 922.7 44.1 921.45 40.6 A 19.563 19.563 0 0 0 919.075 35.945 A 17.715 17.715 0 0 0 917.95 34.5 Q 915.7 31.9 912.65 30.35 Q 909.6 28.8 906 28.8 A 19.249 19.249 0 0 0 900.774 29.472 A 14.037 14.037 0 0 0 893.7 34 A 17.878 17.878 0 0 0 890.026 41.374 Q 889.3 44.306 889.3 47.8 Q 889.3 51.7 890.55 55.25 A 20.131 20.131 0 0 0 892.863 59.888 A 18.151 18.151 0 0 0 894.05 61.45 Q 896.3 64.1 899.35 65.65 Q 902.4 67.2 906 67.2 A 18.689 18.689 0 0 0 909.918 66.805 A 15.186 15.186 0 0 0 913 65.8 Q 916.1 64.4 918.25 61.85 A 17.366 17.366 0 0 0 920.999 57.286 A 20.701 20.701 0 0 0 921.55 55.8 A 22.798 22.798 0 0 0 922.535 51.144 A 29.007 29.007 0 0 0 922.7 48 Z M 428.8 60.7 L 428.8 32.8 Q 426.1 30.9 422.85 29.75 Q 419.6 28.6 416 28.6 A 16.142 16.142 0 0 0 411.533 29.203 A 14.448 14.448 0 0 0 409.4 30 Q 406.4 31.4 404.25 33.95 A 17.393 17.393 0 0 0 401.743 37.953 A 21.502 21.502 0 0 0 400.9 40.1 A 23.426 23.426 0 0 0 399.817 45.381 A 28.621 28.621 0 0 0 399.7 48 A 25.723 25.723 0 0 0 400.169 52.996 A 21.781 21.781 0 0 0 400.9 55.75 A 19.283 19.283 0 0 0 402.776 59.774 A 16.545 16.545 0 0 0 404.3 61.85 Q 406.5 64.4 409.45 65.8 A 14.679 14.679 0 0 0 415.249 67.188 A 17.126 17.126 0 0 0 415.9 67.2 Q 419.7 67.2 423.1 65.4 Q 426.5 63.6 428.8 60.7 Z M 1158.3 60.7 L 1158.3 32.8 Q 1155.6 30.9 1152.35 29.75 Q 1149.1 28.6 1145.5 28.6 A 16.142 16.142 0 0 0 1141.033 29.203 A 14.448 14.448 0 0 0 1138.9 30 Q 1135.9 31.4 1133.75 33.95 A 17.393 17.393 0 0 0 1131.243 37.953 A 21.502 21.502 0 0 0 1130.4 40.1 A 23.426 23.426 0 0 0 1129.317 45.381 A 28.621 28.621 0 0 0 1129.2 48 A 25.723 25.723 0 0 0 1129.669 52.996 A 21.781 21.781 0 0 0 1130.4 55.75 A 19.283 19.283 0 0 0 1132.276 59.774 A 16.545 16.545 0 0 0 1133.8 61.85 Q 1136 64.4 1138.95 65.8 A 14.679 14.679 0 0 0 1144.749 67.188 A 17.126 17.126 0 0 0 1145.4 67.2 Q 1149.2 67.2 1152.6 65.4 Q 1156 63.6 1158.3 60.7 Z M 714.5 35.4 L 714.5 61 Q 717.1 63.7 720.45 65.45 Q 723.8 67.2 727.9 67.2 A 14.31 14.31 0 0 0 732.104 66.597 A 12.858 12.858 0 0 0 734.1 65.8 Q 736.9 64.4 738.95 61.85 A 17.158 17.158 0 0 0 741.32 57.871 A 21.156 21.156 0 0 0 742.1 55.75 Q 743.2 52.2 743.2 47.8 Q 743.2 43.3 741.95 39.75 Q 740.7 36.2 738.55 33.7 Q 736.4 31.2 733.55 29.9 Q 730.7 28.6 727.5 28.6 A 14.741 14.741 0 0 0 721.873 29.663 A 14.054 14.054 0 0 0 719.75 30.75 Q 716.3 32.9 714.5 35.4 Z M 952.8 35.4 L 952.8 61 Q 955.4 63.7 958.75 65.45 Q 962.1 67.2 966.2 67.2 A 14.31 14.31 0 0 0 970.404 66.597 A 12.858 12.858 0 0 0 972.4 65.8 Q 975.2 64.4 977.25 61.85 A 17.158 17.158 0 0 0 979.62 57.871 A 21.156 21.156 0 0 0 980.4 55.75 Q 981.5 52.2 981.5 47.8 Q 981.5 43.3 980.25 39.75 Q 979 36.2 976.85 33.7 Q 974.7 31.2 971.85 29.9 Q 969 28.6 965.8 28.6 A 14.741 14.741 0 0 0 960.173 29.663 A 14.054 14.054 0 0 0 958.05 30.75 Q 954.6 32.9 952.8 35.4 Z M 1097.6 60.9 L 1097.6 35.1 A 16.273 16.273 0 0 0 1095.419 32.857 Q 1094.287 31.887 1092.88 30.983 A 28.298 28.298 0 0 0 1092.35 30.65 A 14.048 14.048 0 0 0 1085.354 28.609 A 16.873 16.873 0 0 0 1084.8 28.6 A 14.964 14.964 0 0 0 1080.454 29.216 A 13.39 13.39 0 0 0 1078.25 30.1 Q 1075.3 31.6 1073.2 34.2 Q 1071.1 36.8 1070 40.35 Q 1068.9 43.9 1068.9 48 A 25.594 25.594 0 0 0 1069.323 52.741 A 21.215 21.215 0 0 0 1070.1 55.7 A 19.851 19.851 0 0 0 1071.971 59.704 A 17.107 17.107 0 0 0 1073.45 61.75 Q 1075.6 64.3 1078.55 65.75 Q 1081.5 67.2 1084.9 67.2 Q 1088.6 67.2 1091.95 65.45 Q 1095.3 63.7 1097.6 60.9 Z M 32.1 13.4 L 18.9 47 L 45.2 47 L 32.1 13.4 Z M 510.6 44.4 L 539.1 44.4 A 24.355 24.355 0 0 0 538.696 39.815 Q 538.2 37.231 537.096 35.207 A 12.422 12.422 0 0 0 535.3 32.7 A 12.488 12.488 0 0 0 528.339 28.924 A 18.395 18.395 0 0 0 524.8 28.6 Q 518.9 28.6 515.15 32.6 A 14.739 14.739 0 0 0 512.357 37.005 Q 511.532 38.961 511.052 41.361 A 32.287 32.287 0 0 0 510.6 44.4 Z M 1296.2 44.4 L 1324.7 44.4 A 24.355 24.355 0 0 0 1324.296 39.815 Q 1323.8 37.231 1322.696 35.207 A 12.422 12.422 0 0 0 1320.9 32.7 A 12.488 12.488 0 0 0 1313.939 28.924 A 18.395 18.395 0 0 0 1310.4 28.6 Q 1304.5 28.6 1300.75 32.6 A 14.739 14.739 0 0 0 1297.957 37.005 Q 1297.132 38.961 1296.652 41.361 A 32.287 32.287 0 0 0 1296.2 44.4 Z M 678.708 11.307 A 6.059 6.059 0 0 0 683.1 13.1 A 8.264 8.264 0 0 0 684.756 12.942 A 5.661 5.661 0 0 0 687.7 11.4 A 5.588 5.588 0 0 0 689.171 8.768 A 7.987 7.987 0 0 0 689.4 6.8 A 7.26 7.26 0 0 0 689.4 6.719 A 6.06 6.06 0 0 0 687.55 2.35 A 7.395 7.395 0 0 0 687.492 2.293 A 6.059 6.059 0 0 0 683.1 0.5 A 8.264 8.264 0 0 0 681.444 0.658 A 5.661 5.661 0 0 0 678.5 2.2 A 5.588 5.588 0 0 0 677.029 4.832 A 7.987 7.987 0 0 0 676.8 6.8 A 7.26 7.26 0 0 0 676.8 6.881 A 6.06 6.06 0 0 0 678.65 11.25 A 7.395 7.395 0 0 0 678.708 11.307 Z" vector-effect="non-scaling-stroke"/></g></svg>