<svg width="1585.65" height="145.051" viewBox="0 0 1585.65 145.051" xmlns="http://www.w3.org/2000/svg"><g id="svgGroup" stroke-linecap="round" fill-rule="evenodd" font-size="9pt" stroke="#000" stroke-width="0.25mm" fill="black" style="stroke:#000;stroke-width:0.25mm;fill:black"><path d="M 250.05 32.251 L 250.05 45.301 Q 254.25 39.001 260.625 34.726 Q 267 30.451 275.4 30.451 Q 283.701 30.451 289.253 33.976 A 19.271 19.271 0 0 1 290.55 34.876 A 23.685 23.685 0 0 1 298.073 44.639 A 29.618 29.618 0 0 1 298.95 46.951 Q 303.6 40.051 309.975 35.251 A 23.503 23.503 0 0 1 320.161 30.926 A 32.169 32.169 0 0 1 325.8 30.451 A 31.987 31.987 0 0 1 331.273 30.897 A 23.528 23.528 0 0 1 336.825 32.551 Q 341.55 34.651 344.7 38.476 A 24.493 24.493 0 0 1 348.508 44.98 A 29.817 29.817 0 0 1 349.425 47.626 A 38.063 38.063 0 0 1 350.779 54.722 A 47.991 47.991 0 0 1 351 59.401 L 351 110.251 L 337.5 110.251 L 337.5 60.451 Q 337.5 52.351 333.75 47.326 A 11.961 11.961 0 0 0 325.03 42.382 A 16.017 16.017 0 0 0 323.4 42.301 Q 319.95 42.301 316.8 43.651 A 24.815 24.815 0 0 0 311.517 46.76 A 28.083 28.083 0 0 0 310.8 47.326 A 38.432 38.432 0 0 0 306.367 51.599 A 43.783 43.783 0 0 0 305.4 52.726 Q 302.85 55.801 300.75 59.101 L 300.75 110.251 L 287.25 110.251 L 287.25 60.451 Q 287.25 52.351 283.5 47.326 A 11.961 11.961 0 0 0 274.78 42.382 A 16.017 16.017 0 0 0 273.15 42.301 Q 269.85 42.301 266.7 43.576 A 25.289 25.289 0 0 0 261.73 46.292 A 29.018 29.018 0 0 0 260.625 47.101 A 35.672 35.672 0 0 0 255.631 51.795 A 39.726 39.726 0 0 0 255.15 52.351 Q 252.6 55.351 250.5 58.651 L 250.5 110.251 L 237 110.251 L 237 32.251 L 250.05 32.251 Z M 863.4 105.751 L 850.05 112.051 L 837 83.551 Q 833.091 75.14 827.59 70.565 A 24.316 24.316 0 0 0 824.55 68.401 A 29.478 29.478 0 0 0 816.299 65.097 Q 812.612 64.2 808.297 63.976 A 56.771 56.771 0 0 0 805.35 63.901 L 803.1 63.901 L 803.1 110.251 L 788.85 110.251 L 788.85 5.551 A 414.71 414.71 0 0 1 798.594 4.76 A 340.28 340.28 0 0 1 804.075 4.426 A 262.332 262.332 0 0 1 811.519 4.145 A 335.035 335.035 0 0 1 819.6 4.051 Q 829.2 4.051 836.4 6.076 Q 843.6 8.101 848.4 11.851 A 25.878 25.878 0 0 1 854.05 17.865 A 23.803 23.803 0 0 1 855.675 20.701 A 24.931 24.931 0 0 1 858.101 30.242 A 29.518 29.518 0 0 1 858.15 31.951 A 29.82 29.82 0 0 1 857.174 39.781 A 22.008 22.008 0 0 1 851.625 49.576 A 31.534 31.534 0 0 1 844.239 55.092 Q 839.334 57.798 832.8 59.551 Q 835.8 60.901 838.35 62.626 A 26.144 26.144 0 0 1 842.296 65.924 A 29.917 29.917 0 0 1 843.15 66.826 A 36.568 36.568 0 0 1 845.381 69.545 A 49.274 49.274 0 0 1 847.575 72.751 Q 849.325 75.527 851.124 79.275 A 99.184 99.184 0 0 1 852 81.151 L 863.4 105.751 Z M 1218.15 38.251 L 1218.15 32.251 L 1230.45 32.251 L 1230.45 108.451 Q 1230.45 118.201 1227.9 125.101 A 32.025 32.025 0 0 1 1224.577 131.734 A 26.373 26.373 0 0 1 1220.625 136.426 A 29.03 29.03 0 0 1 1210.32 142.609 A 33.848 33.848 0 0 1 1209.3 142.951 A 44.093 44.093 0 0 1 1200.699 144.731 A 56.204 56.204 0 0 1 1194.6 145.051 A 54.544 54.544 0 0 1 1181.909 143.601 A 50.868 50.868 0 0 1 1181.1 143.401 A 40.526 40.526 0 0 1 1172.869 140.352 A 35.655 35.655 0 0 1 1169.55 138.451 L 1174.5 126.751 Q 1178.1 129.601 1182.9 131.476 A 25.357 25.357 0 0 0 1187.681 132.79 Q 1190.034 133.21 1192.738 133.315 A 47.682 47.682 0 0 0 1194.6 133.351 A 32.976 32.976 0 0 0 1201.381 132.695 Q 1207.338 131.443 1211.325 127.801 Q 1217.4 122.251 1217.4 109.801 L 1217.4 100.201 A 23.697 23.697 0 0 1 1214.402 103.172 Q 1212.788 104.524 1210.768 105.819 A 47.11 47.11 0 0 1 1208.775 107.026 A 23.86 23.86 0 0 1 1201.003 109.778 A 32.385 32.385 0 0 1 1195.35 110.251 Q 1188.75 110.251 1182.45 107.626 Q 1176.15 105.001 1171.35 99.976 A 36.251 36.251 0 0 1 1165.419 91.59 A 44.375 44.375 0 0 1 1163.625 87.676 Q 1160.7 80.401 1160.7 70.951 A 46.615 46.615 0 0 1 1162.043 59.606 A 41.253 41.253 0 0 1 1163.55 54.826 A 42.443 42.443 0 0 1 1168.426 45.574 A 37.604 37.604 0 0 1 1171.275 42.001 Q 1176.15 36.601 1182.75 33.526 Q 1189.35 30.451 1196.85 30.451 A 40.438 40.438 0 0 1 1196.955 30.451 Q 1200.455 30.46 1203.571 31.076 A 27.344 27.344 0 0 1 1208.925 32.701 A 38.396 38.396 0 0 1 1214.886 35.833 A 31.989 31.989 0 0 1 1218.15 38.251 Z M 1573.35 38.251 L 1573.35 32.251 L 1585.65 32.251 L 1585.65 108.451 Q 1585.65 118.201 1583.1 125.101 A 32.025 32.025 0 0 1 1579.777 131.734 A 26.373 26.373 0 0 1 1575.825 136.426 A 29.03 29.03 0 0 1 1565.52 142.609 A 33.848 33.848 0 0 1 1564.5 142.951 A 44.093 44.093 0 0 1 1555.899 144.731 A 56.204 56.204 0 0 1 1549.8 145.051 A 54.544 54.544 0 0 1 1537.109 143.601 A 50.868 50.868 0 0 1 1536.3 143.401 A 40.526 40.526 0 0 1 1528.069 140.352 A 35.655 35.655 0 0 1 1524.75 138.451 L 1529.7 126.751 Q 1533.3 129.601 1538.1 131.476 A 25.357 25.357 0 0 0 1542.881 132.79 Q 1545.234 133.21 1547.938 133.315 A 47.682 47.682 0 0 0 1549.8 133.351 A 32.976 32.976 0 0 0 1556.581 132.695 Q 1562.538 131.443 1566.525 127.801 Q 1572.6 122.251 1572.6 109.801 L 1572.6 100.201 A 23.697 23.697 0 0 1 1569.602 103.172 Q 1567.988 104.524 1565.968 105.819 A 47.11 47.11 0 0 1 1563.975 107.026 A 23.86 23.86 0 0 1 1556.203 109.778 A 32.385 32.385 0 0 1 1550.55 110.251 Q 1543.95 110.251 1537.65 107.626 Q 1531.35 105.001 1526.55 99.976 A 36.251 36.251 0 0 1 1520.619 91.59 A 44.375 44.375 0 0 1 1518.825 87.676 Q 1515.9 80.401 1515.9 70.951 A 46.615 46.615 0 0 1 1517.243 59.606 A 41.253 41.253 0 0 1 1518.75 54.826 A 42.443 42.443 0 0 1 1523.626 45.574 A 37.604 37.604 0 0 1 1526.475 42.001 Q 1531.35 36.601 1537.95 33.526 Q 1544.55 30.451 1552.05 30.451 A 40.438 40.438 0 0 1 1552.155 30.451 Q 1555.655 30.46 1558.771 31.076 A 27.344 27.344 0 0 1 1564.125 32.701 A 38.396 38.396 0 0 1 1570.086 35.833 A 31.989 31.989 0 0 1 1573.35 38.251 Z M 123.75 32.251 L 123.75 45.301 Q 127.95 39.001 134.475 34.726 Q 141 30.451 150 30.451 Q 163.2 30.451 169.725 38.401 Q 175.912 45.94 176.233 58.064 A 50.646 50.646 0 0 1 176.25 59.401 L 176.25 110.251 L 162.75 110.251 L 162.75 60.901 A 30.418 30.418 0 0 0 162.289 55.439 Q 161.726 52.354 160.473 49.892 A 16.033 16.033 0 0 0 158.85 47.326 A 12.691 12.691 0 0 0 149.932 42.425 A 18.583 18.583 0 0 0 147.75 42.301 Q 144.3 42.301 141 43.576 A 27.262 27.262 0 0 0 135.446 46.521 A 30.938 30.938 0 0 0 134.625 47.101 Q 131.55 49.351 128.925 52.351 Q 126.3 55.351 124.2 58.651 L 124.2 110.251 L 110.7 110.251 L 110.7 32.251 L 123.75 32.251 Z M 666.6 32.251 L 666.6 45.301 Q 670.8 39.001 677.325 34.726 Q 683.85 30.451 692.85 30.451 Q 706.05 30.451 712.575 38.401 Q 718.762 45.94 719.083 58.064 A 50.646 50.646 0 0 1 719.1 59.401 L 719.1 110.251 L 705.6 110.251 L 705.6 60.901 A 30.418 30.418 0 0 0 705.139 55.439 Q 704.576 52.354 703.323 49.892 A 16.033 16.033 0 0 0 701.7 47.326 A 12.691 12.691 0 0 0 692.782 42.425 A 18.583 18.583 0 0 0 690.6 42.301 Q 687.15 42.301 683.85 43.576 A 27.262 27.262 0 0 0 678.296 46.521 A 30.938 30.938 0 0 0 677.475 47.101 Q 674.4 49.351 671.775 52.351 Q 669.15 55.351 667.05 58.651 L 667.05 110.251 L 653.55 110.251 L 653.55 32.251 L 666.6 32.251 Z M 1445.4 32.251 L 1445.4 45.301 Q 1449.6 39.001 1456.125 34.726 Q 1462.65 30.451 1471.65 30.451 Q 1484.85 30.451 1491.375 38.401 Q 1497.562 45.94 1497.883 58.064 A 50.646 50.646 0 0 1 1497.9 59.401 L 1497.9 110.251 L 1484.4 110.251 L 1484.4 60.901 A 30.418 30.418 0 0 0 1483.939 55.439 Q 1483.376 52.354 1482.123 49.892 A 16.033 16.033 0 0 0 1480.5 47.326 A 12.691 12.691 0 0 0 1471.582 42.425 A 18.583 18.583 0 0 0 1469.4 42.301 Q 1465.95 42.301 1462.65 43.576 A 27.262 27.262 0 0 0 1457.096 46.521 A 30.938 30.938 0 0 0 1456.275 47.101 Q 1453.2 49.351 1450.575 52.351 Q 1447.95 55.351 1445.85 58.651 L 1445.85 110.251 L 1432.35 110.251 L 1432.35 32.251 L 1445.4 32.251 Z M 12.15 111.451 L 0 106.501 L 41.1 5.251 L 56.7 5.251 L 97.2 106.501 L 84.15 111.751 L 72.45 81.751 L 23.85 81.751 L 12.15 111.451 Z M 943.05 76.801 L 888.45 76.801 A 36.132 36.132 0 0 0 890.159 84.338 Q 892.163 90.057 896.1 93.901 Q 902.4 100.051 912.75 100.051 A 55.094 55.094 0 0 0 919.163 99.695 A 41.363 41.363 0 0 0 924.9 98.626 Q 930.3 97.201 935.25 94.951 L 938.4 106.501 Q 933 109.051 926.25 110.551 A 61.067 61.067 0 0 1 918.612 111.721 A 81.911 81.911 0 0 1 911.1 112.051 A 43.767 43.767 0 0 1 902.406 111.221 A 35.412 35.412 0 0 1 895.95 109.276 Q 889.2 106.501 884.475 101.326 A 33.191 33.191 0 0 1 879.006 93.076 A 41.361 41.361 0 0 1 877.2 88.576 Q 874.65 81.001 874.65 71.251 A 52.317 52.317 0 0 1 875.855 59.856 A 45.895 45.895 0 0 1 877.2 55.051 A 41.549 41.549 0 0 1 881.421 46.128 A 36.228 36.228 0 0 1 884.4 42.076 Q 889.05 36.601 895.5 33.526 Q 901.95 30.451 909.9 30.451 Q 918.3 30.451 924.6 33.301 A 30.074 30.074 0 0 1 933.162 39.036 A 28.251 28.251 0 0 1 935.1 41.101 A 32.917 32.917 0 0 1 941.094 51.731 A 37.821 37.821 0 0 1 941.4 52.651 A 45.523 45.523 0 0 1 943.495 65.914 A 51.089 51.089 0 0 1 943.5 66.601 A 112.805 112.805 0 0 1 943.064 76.646 A 103.961 103.961 0 0 1 943.05 76.801 Z M 1316.85 76.801 L 1262.25 76.801 A 36.132 36.132 0 0 0 1263.959 84.338 Q 1265.963 90.057 1269.9 93.901 Q 1276.2 100.051 1286.55 100.051 A 55.094 55.094 0 0 0 1292.963 99.695 A 41.363 41.363 0 0 0 1298.7 98.626 Q 1304.1 97.201 1309.05 94.951 L 1312.2 106.501 Q 1306.8 109.051 1300.05 110.551 A 61.067 61.067 0 0 1 1292.412 111.721 A 81.911 81.911 0 0 1 1284.9 112.051 A 43.767 43.767 0 0 1 1276.206 111.221 A 35.412 35.412 0 0 1 1269.75 109.276 Q 1263 106.501 1258.275 101.326 A 33.191 33.191 0 0 1 1252.806 93.076 A 41.361 41.361 0 0 1 1251 88.576 Q 1248.45 81.001 1248.45 71.251 A 52.317 52.317 0 0 1 1249.655 59.856 A 45.895 45.895 0 0 1 1251 55.051 A 41.549 41.549 0 0 1 1255.221 46.128 A 36.228 36.228 0 0 1 1258.2 42.076 Q 1262.85 36.601 1269.3 33.526 Q 1275.75 30.451 1283.7 30.451 Q 1292.1 30.451 1298.4 33.301 A 30.074 30.074 0 0 1 1306.962 39.036 A 28.251 28.251 0 0 1 1308.9 41.101 A 32.917 32.917 0 0 1 1314.894 51.731 A 37.821 37.821 0 0 1 1315.2 52.651 A 45.523 45.523 0 0 1 1317.295 65.914 A 51.089 51.089 0 0 1 1317.3 66.601 A 112.805 112.805 0 0 1 1316.864 76.646 A 103.961 103.961 0 0 1 1316.85 76.801 Z M 470.1 35.101 L 472.95 10.501 L 483.3 10.501 L 483.3 35.101 L 504.9 35.101 L 504.9 46.801 L 483.3 46.801 L 483.3 84.451 A 32.512 32.512 0 0 0 483.437 87.524 Q 483.58 89.025 483.872 90.321 A 16.543 16.543 0 0 0 484.275 91.801 Q 485.132 94.439 486.512 96.149 A 9.423 9.423 0 0 0 486.9 96.601 Q 488.55 98.401 490.875 99.226 Q 493.2 100.051 495.75 100.051 A 20.84 20.84 0 0 0 501.547 99.259 A 19.302 19.302 0 0 0 502.8 98.851 Q 506.1 97.651 509.1 96.001 L 512.85 106.801 Q 510.811 108.024 507.802 109.213 A 65.048 65.048 0 0 1 504.75 110.326 Q 499.65 112.051 494.1 112.051 A 27.752 27.752 0 0 1 486.327 111.017 A 20.927 20.927 0 0 1 476.325 104.701 Q 470.965 98.664 470.008 88.173 A 52.557 52.557 0 0 1 469.8 83.401 L 469.8 46.801 L 456.3 46.801 L 456.3 35.101 L 470.1 35.101 Z M 964.8 35.101 L 967.65 10.501 L 978 10.501 L 978 35.101 L 999.6 35.101 L 999.6 46.801 L 978 46.801 L 978 84.451 A 32.512 32.512 0 0 0 978.137 87.524 Q 978.28 89.025 978.572 90.321 A 16.543 16.543 0 0 0 978.975 91.801 Q 979.832 94.439 981.212 96.149 A 9.423 9.423 0 0 0 981.6 96.601 Q 983.25 98.401 985.575 99.226 Q 987.9 100.051 990.45 100.051 A 20.84 20.84 0 0 0 996.247 99.259 A 19.302 19.302 0 0 0 997.5 98.851 Q 1000.8 97.651 1003.8 96.001 L 1007.55 106.801 Q 1005.511 108.024 1002.502 109.213 A 65.048 65.048 0 0 1 999.45 110.326 Q 994.35 112.051 988.8 112.051 A 27.752 27.752 0 0 1 981.027 111.017 A 20.927 20.927 0 0 1 971.025 104.701 Q 965.665 98.664 964.708 88.173 A 52.557 52.557 0 0 1 964.5 83.401 L 964.5 46.801 L 951 46.801 L 951 35.101 L 964.8 35.101 Z M 1338.6 35.101 L 1341.45 10.501 L 1351.8 10.501 L 1351.8 35.101 L 1373.4 35.101 L 1373.4 46.801 L 1351.8 46.801 L 1351.8 84.451 A 32.512 32.512 0 0 0 1351.937 87.524 Q 1352.08 89.025 1352.372 90.321 A 16.543 16.543 0 0 0 1352.775 91.801 Q 1353.632 94.439 1355.012 96.149 A 9.423 9.423 0 0 0 1355.4 96.601 Q 1357.05 98.401 1359.375 99.226 Q 1361.7 100.051 1364.25 100.051 A 20.84 20.84 0 0 0 1370.047 99.259 A 19.302 19.302 0 0 0 1371.3 98.851 Q 1374.6 97.651 1377.6 96.001 L 1381.35 106.801 Q 1379.311 108.024 1376.302 109.213 A 65.048 65.048 0 0 1 1373.25 110.326 Q 1368.15 112.051 1362.6 112.051 A 27.752 27.752 0 0 1 1354.827 111.017 A 20.927 20.927 0 0 1 1344.825 104.701 Q 1339.465 98.664 1338.508 88.173 A 52.557 52.557 0 0 1 1338.3 83.401 L 1338.3 46.801 L 1324.8 46.801 L 1324.8 35.101 L 1338.6 35.101 Z M 427.65 38.551 L 427.65 32.251 L 439.95 32.251 L 439.95 91.351 A 18.225 18.225 0 0 0 440.102 93.805 Q 440.487 96.627 441.844 98.057 A 4.448 4.448 0 0 0 442.725 98.776 Q 445.5 100.501 448.8 100.501 L 445.95 111.001 Q 431.905 111.001 428.705 99.871 A 20.385 20.385 0 0 1 428.55 99.301 A 42.752 42.752 0 0 1 425.555 102.859 A 49.159 49.159 0 0 1 424.425 104.026 A 27.306 27.306 0 0 1 419.484 107.917 A 30.437 30.437 0 0 1 419.1 108.151 Q 416.1 109.951 412.35 111.001 A 28.147 28.147 0 0 1 407.37 111.903 A 35.186 35.186 0 0 1 404.1 112.051 Q 396.75 112.051 390.375 109.201 Q 384 106.351 379.275 101.101 Q 374.55 95.851 371.775 88.426 A 43.334 43.334 0 0 1 369.407 78.547 A 55.721 55.721 0 0 1 369 71.701 A 49.583 49.583 0 0 1 370.511 59.314 A 44.762 44.762 0 0 1 371.7 55.426 A 41.676 41.676 0 0 1 376.441 45.967 A 37.195 37.195 0 0 1 379.275 42.301 Q 384.15 36.751 390.975 33.601 A 34.686 34.686 0 0 1 404.143 30.489 A 40.623 40.623 0 0 1 405.9 30.451 A 33.876 33.876 0 0 1 413.09 31.187 A 28.055 28.055 0 0 1 418.125 32.776 A 39.003 39.003 0 0 1 424.555 36.217 A 33.154 33.154 0 0 1 427.65 38.551 Z M 1071.45 38.551 L 1071.45 32.251 L 1083.75 32.251 L 1083.75 91.351 A 18.225 18.225 0 0 0 1083.902 93.805 Q 1084.287 96.627 1085.644 98.057 A 4.448 4.448 0 0 0 1086.525 98.776 Q 1089.3 100.501 1092.6 100.501 L 1089.75 111.001 Q 1075.705 111.001 1072.505 99.871 A 20.385 20.385 0 0 1 1072.35 99.301 A 42.752 42.752 0 0 1 1069.355 102.859 A 49.159 49.159 0 0 1 1068.225 104.026 A 27.306 27.306 0 0 1 1063.284 107.917 A 30.437 30.437 0 0 1 1062.9 108.151 Q 1059.9 109.951 1056.15 111.001 A 28.147 28.147 0 0 1 1051.17 111.903 A 35.186 35.186 0 0 1 1047.9 112.051 Q 1040.55 112.051 1034.175 109.201 Q 1027.8 106.351 1023.075 101.101 Q 1018.35 95.851 1015.575 88.426 A 43.334 43.334 0 0 1 1013.207 78.547 A 55.721 55.721 0 0 1 1012.8 71.701 A 49.583 49.583 0 0 1 1014.311 59.314 A 44.762 44.762 0 0 1 1015.5 55.426 A 41.676 41.676 0 0 1 1020.241 45.967 A 37.195 37.195 0 0 1 1023.075 42.301 Q 1027.95 36.751 1034.775 33.601 A 34.686 34.686 0 0 1 1047.943 30.489 A 40.623 40.623 0 0 1 1049.7 30.451 A 33.876 33.876 0 0 1 1056.89 31.187 A 28.055 28.055 0 0 1 1061.925 32.776 A 39.003 39.003 0 0 1 1068.355 36.217 A 33.154 33.154 0 0 1 1071.45 38.551 Z M 1156.95 31.351 L 1152.9 45.301 Q 1150.179 44.155 1146.502 44.103 A 24.891 24.891 0 0 0 1146.15 44.101 Q 1141.95 44.101 1137.975 45.901 A 19.802 19.802 0 0 0 1131.808 50.324 A 23.385 23.385 0 0 0 1130.925 51.301 A 23.306 23.306 0 0 0 1128.035 55.625 Q 1126.869 57.845 1125.975 60.526 Q 1124.1 66.151 1124.1 73.801 L 1124.1 110.251 L 1110.6 110.251 L 1110.6 32.251 L 1123.65 32.251 L 1123.65 49.201 A 35.641 35.641 0 0 1 1126.702 43.016 A 39.935 39.935 0 0 1 1127.25 42.151 Q 1129.5 38.701 1132.575 36.151 A 25.014 25.014 0 0 1 1138.337 32.596 A 28.98 28.98 0 0 1 1139.7 32.026 A 23.164 23.164 0 0 1 1145.694 30.605 A 28.664 28.664 0 0 1 1148.7 30.451 Q 1150.95 30.451 1153.125 30.676 A 29.542 29.542 0 0 1 1154.928 30.916 Q 1155.817 31.064 1156.596 31.259 A 17.163 17.163 0 0 1 1156.95 31.351 Z M 558.697 61.74 A 51.295 51.295 0 0 0 557.85 71.251 A 52.053 52.053 0 0 0 558.044 75.792 A 43.083 43.083 0 0 0 560.775 87.751 Q 563.7 95.251 568.875 100.651 Q 574.05 106.051 581.175 109.051 A 36.972 36.972 0 0 0 585.753 110.633 A 41.238 41.238 0 0 0 596.7 112.051 Q 604.95 112.051 612.075 109.126 Q 619.2 106.201 624.45 100.801 A 35.737 35.737 0 0 0 627.219 97.591 A 39.242 39.242 0 0 0 632.625 87.826 A 41.721 41.721 0 0 0 634.625 80.868 A 51.112 51.112 0 0 0 635.55 70.951 Q 635.55 61.651 632.55 54.151 A 43.077 43.077 0 0 0 631.558 51.862 A 36.631 36.631 0 0 0 624.3 41.401 Q 619.05 36.151 611.925 33.301 A 39.088 39.088 0 0 0 611.031 32.956 A 40.785 40.785 0 0 0 596.7 30.451 A 46.732 46.732 0 0 0 594.909 30.485 A 40.472 40.472 0 0 0 581.325 33.301 Q 574.2 36.151 569.025 41.401 A 34.895 34.895 0 0 0 565.45 45.665 A 40.206 40.206 0 0 0 560.85 54.226 A 40.967 40.967 0 0 0 558.697 61.74 Z M 213 32.251 L 213 110.251 L 199.5 110.251 L 199.5 32.251 L 213 32.251 Z M 539.85 32.251 L 539.85 110.251 L 526.35 110.251 L 526.35 32.251 L 539.85 32.251 Z M 1408.35 32.251 L 1408.35 110.251 L 1394.85 110.251 L 1394.85 32.251 L 1408.35 32.251 Z M 621.75 71.251 Q 621.75 65.401 619.875 60.151 A 29.345 29.345 0 0 0 616.312 53.168 A 26.572 26.572 0 0 0 614.625 51.001 Q 611.25 47.101 606.675 44.776 Q 602.1 42.451 596.7 42.451 Q 584.85 42.451 578.25 50.251 A 26.817 26.817 0 0 0 572.739 61.311 Q 571.752 65.298 571.66 69.976 A 49.304 49.304 0 0 0 571.65 70.951 Q 571.65 76.801 573.525 82.126 A 30.197 30.197 0 0 0 576.995 89.083 A 27.226 27.226 0 0 0 578.775 91.426 Q 582.15 95.401 586.725 97.726 Q 591.3 100.051 596.7 100.051 Q 602.55 100.051 607.2 97.951 Q 611.85 95.851 615.075 92.026 A 26.049 26.049 0 0 0 619.199 85.18 A 31.051 31.051 0 0 0 620.025 82.951 A 34.198 34.198 0 0 0 621.502 75.967 A 43.511 43.511 0 0 0 621.75 71.251 Z M 426.45 90.301 L 426.45 48.451 Q 422.4 45.601 417.525 43.876 Q 412.65 42.151 407.25 42.151 A 24.213 24.213 0 0 0 400.55 43.055 A 21.671 21.671 0 0 0 397.35 44.251 Q 392.85 46.351 389.625 50.176 A 26.09 26.09 0 0 0 385.864 56.18 A 32.253 32.253 0 0 0 384.6 59.401 A 35.139 35.139 0 0 0 382.976 67.322 A 42.932 42.932 0 0 0 382.8 71.251 Q 382.8 77.551 384.6 82.876 A 28.924 28.924 0 0 0 387.415 88.912 A 24.818 24.818 0 0 0 389.7 92.026 Q 393 95.851 397.425 97.951 Q 401.85 100.051 407.1 100.051 Q 412.8 100.051 417.9 97.351 Q 423 94.651 426.45 90.301 Z M 1070.25 90.301 L 1070.25 48.451 Q 1066.2 45.601 1061.325 43.876 Q 1056.45 42.151 1051.05 42.151 A 24.213 24.213 0 0 0 1044.35 43.055 A 21.671 21.671 0 0 0 1041.15 44.251 Q 1036.65 46.351 1033.425 50.176 A 26.09 26.09 0 0 0 1029.664 56.18 A 32.253 32.253 0 0 0 1028.4 59.401 A 35.139 35.139 0 0 0 1026.776 67.322 A 42.932 42.932 0 0 0 1026.6 71.251 Q 1026.6 77.551 1028.4 82.876 A 28.924 28.924 0 0 0 1031.215 88.912 A 24.818 24.818 0 0 0 1033.5 92.026 Q 1036.8 95.851 1041.225 97.951 Q 1045.65 100.051 1050.9 100.051 Q 1056.6 100.051 1061.7 97.351 Q 1066.8 94.651 1070.25 90.301 Z M 1216.95 89.251 L 1216.95 48.451 Q 1213.5 46.051 1209 44.101 Q 1204.852 42.303 1199.173 42.163 A 39.369 39.369 0 0 0 1198.2 42.151 Q 1193.55 42.151 1189.275 44.026 Q 1185 45.901 1181.7 49.501 A 25.325 25.325 0 0 0 1177.727 55.342 A 31.135 31.135 0 0 0 1176.45 58.276 A 29.502 29.502 0 0 0 1174.887 64.502 A 40.12 40.12 0 0 0 1174.5 70.201 Q 1174.5 76.651 1176.45 81.826 A 29.708 29.708 0 0 0 1179.328 87.576 A 25.206 25.206 0 0 0 1181.7 90.676 Q 1185 94.351 1189.275 96.301 Q 1193.55 98.251 1198.35 98.251 A 22.914 22.914 0 0 0 1205.217 97.248 A 20.409 20.409 0 0 0 1209.15 95.551 A 31.282 31.282 0 0 0 1213.621 92.527 A 24.464 24.464 0 0 0 1216.95 89.251 Z M 1572.15 89.251 L 1572.15 48.451 Q 1568.7 46.051 1564.2 44.101 Q 1560.052 42.303 1554.373 42.163 A 39.369 39.369 0 0 0 1553.4 42.151 Q 1548.75 42.151 1544.475 44.026 Q 1540.2 45.901 1536.9 49.501 A 25.325 25.325 0 0 0 1532.927 55.342 A 31.135 31.135 0 0 0 1531.65 58.276 A 29.502 29.502 0 0 0 1530.087 64.502 A 40.12 40.12 0 0 0 1529.7 70.201 Q 1529.7 76.651 1531.65 81.826 A 29.708 29.708 0 0 0 1534.528 87.576 A 25.206 25.206 0 0 0 1536.9 90.676 Q 1540.2 94.351 1544.475 96.301 Q 1548.75 98.251 1553.55 98.251 A 22.914 22.914 0 0 0 1560.417 97.248 A 20.409 20.409 0 0 0 1564.35 95.551 A 31.282 31.282 0 0 0 1568.821 92.527 A 24.464 24.464 0 0 0 1572.15 89.251 Z M 48.15 19.351 L 28.35 69.751 L 67.8 69.751 L 48.15 19.351 Z M 803.1 16.651 L 803.1 51.901 L 819.6 51.901 Q 830.4 51.901 837.15 47.101 Q 843.9 42.301 843.9 33.301 A 14.717 14.717 0 0 0 838.99 22.105 A 19.909 19.909 0 0 0 837.6 20.926 A 20.884 20.884 0 0 0 831.054 17.593 Q 826.181 16.051 819.6 16.051 A 298.818 298.818 0 0 0 815.049 16.084 Q 812.602 16.121 810.45 16.201 Q 806.4 16.351 803.1 16.651 Z M 888.3 65.851 L 931.05 65.851 A 36.533 36.533 0 0 0 930.444 58.973 Q 929.7 55.097 928.044 52.061 A 18.633 18.633 0 0 0 925.35 48.301 Q 919.65 42.151 909.6 42.151 A 21.282 21.282 0 0 0 902.474 43.299 A 18.328 18.328 0 0 0 895.125 48.151 A 22.108 22.108 0 0 0 890.936 54.759 Q 889.699 57.692 888.978 61.292 A 48.43 48.43 0 0 0 888.3 65.851 Z M 1262.1 65.851 L 1304.85 65.851 A 36.533 36.533 0 0 0 1304.244 58.973 Q 1303.5 55.097 1301.844 52.061 A 18.633 18.633 0 0 0 1299.15 48.301 Q 1293.45 42.151 1283.4 42.151 A 21.282 21.282 0 0 0 1276.274 43.299 A 18.328 18.328 0 0 0 1268.925 48.151 A 22.108 22.108 0 0 0 1264.736 54.759 Q 1263.499 57.692 1262.778 61.292 A 48.43 48.43 0 0 0 1262.1 65.851 Z M 206.25 18.901 Q 202.35 18.901 199.575 16.126 A 9.091 9.091 0 0 1 196.801 9.573 A 10.887 10.887 0 0 1 196.8 9.451 Q 196.8 5.101 199.35 2.551 A 8.492 8.492 0 0 1 203.766 0.238 A 12.396 12.396 0 0 1 206.25 0.001 Q 210.15 0.001 212.925 2.776 A 9.091 9.091 0 0 1 215.699 9.329 A 10.887 10.887 0 0 1 215.7 9.451 Q 215.7 13.801 213.15 16.351 A 8.492 8.492 0 0 1 208.734 18.664 A 12.396 12.396 0 0 1 206.25 18.901 Z M 533.1 18.901 Q 529.2 18.901 526.425 16.126 A 9.091 9.091 0 0 1 523.651 9.573 A 10.887 10.887 0 0 1 523.65 9.451 Q 523.65 5.101 526.2 2.551 A 8.492 8.492 0 0 1 530.616 0.238 A 12.396 12.396 0 0 1 533.1 0.001 Q 537 0.001 539.775 2.776 A 9.091 9.091 0 0 1 542.549 9.329 A 10.887 10.887 0 0 1 542.55 9.451 Q 542.55 13.801 540 16.351 A 8.492 8.492 0 0 1 535.584 18.664 A 12.396 12.396 0 0 1 533.1 18.901 Z M 1401.6 18.901 Q 1397.7 18.901 1394.925 16.126 A 9.091 9.091 0 0 1 1392.151 9.573 A 10.887 10.887 0 0 1 1392.15 9.451 Q 1392.15 5.101 1394.7 2.551 A 8.492 8.492 0 0 1 1399.116 0.238 A 12.396 12.396 0 0 1 1401.6 0.001 Q 1405.5 0.001 1408.275 2.776 A 9.091 9.091 0 0 1 1411.049 9.329 A 10.887 10.887 0 0 1 1411.05 9.451 Q 1411.05 13.801 1408.5 16.351 A 8.492 8.492 0 0 1 1404.084 18.664 A 12.396 12.396 0 0 1 1401.6 18.901 Z" vector-effect="non-scaling-stroke"/></g></svg>