<svg width="199.1" height="72.3" viewBox="0 0 199.1 72.3" xmlns="http://www.w3.org/2000/svg"><g id="svgGroup" stroke-linecap="round" fill-rule="evenodd" font-size="9pt" stroke="#000" stroke-width="0.25mm" fill="black" style="stroke:#000;stroke-width:0.25mm;fill:black"><path d="M 189.6 71.1 L 189.6 13.2 L 170.9 55.3 L 161.5 55.3 L 142.7 13.2 L 142.7 71.1 L 133.7 71.1 L 133.7 1.1 L 147 1.1 L 166.4 45.4 L 185.5 1.1 L 199.1 1.1 L 199.1 71.1 L 189.6 71.1 Z M 25.7 71.1 L 0 3.6 L 9.3 0 L 31.3 60.7 L 53.4 0.3 L 62 3.6 L 36.4 71.1 L 25.7 71.1 Z M 121.7 68.1 L 112.8 72.3 L 104.1 53.3 A 30.586 30.586 0 0 0 101.509 48.726 Q 99.003 45.122 95.8 43.2 Q 91.445 40.587 84.964 40.25 A 37.847 37.847 0 0 0 83 40.2 L 81.5 40.2 L 81.5 71.1 L 72 71.1 L 72 1.3 Q 77.4 0.8 82.15 0.55 Q 86.9 0.3 92.5 0.3 A 51.439 51.439 0 0 1 97.794 0.558 Q 100.399 0.828 102.67 1.38 A 29.796 29.796 0 0 1 103.7 1.65 A 27.344 27.344 0 0 1 107.785 3.139 A 19.912 19.912 0 0 1 111.7 5.5 Q 114.9 8 116.55 11.4 Q 118.2 14.8 118.2 18.9 A 19.88 19.88 0 0 1 117.549 24.12 A 14.672 14.672 0 0 1 113.85 30.65 Q 109.5 35.1 101.3 37.3 Q 103.3 38.2 105 39.35 Q 106.7 40.5 108.2 42.15 Q 109.7 43.8 111.15 46.1 A 35.914 35.914 0 0 1 112.245 47.966 Q 113.163 49.638 114.1 51.7 L 121.7 68.1 Z M 81.5 8.7 L 81.5 32.2 L 92.5 32.2 A 26.489 26.489 0 0 0 97.423 31.769 Q 101.352 31.025 104.2 29 Q 108.7 25.8 108.7 19.8 A 9.811 9.811 0 0 0 105.427 12.336 A 13.272 13.272 0 0 0 104.5 11.55 A 13.923 13.923 0 0 0 100.136 9.328 Q 98.207 8.718 95.877 8.47 A 31.944 31.944 0 0 0 92.5 8.3 Q 89.326 8.3 86.762 8.387 A 118.974 118.974 0 0 0 86.4 8.4 Q 83.7 8.5 81.5 8.7 Z" vector-effect="non-scaling-stroke"/></g></svg>